<svg width="400" height="225" viewBox="0 0 400 225" fill="none" xmlns="http://www.w3.org/2000/svg">
<path fill-rule="evenodd" clip-rule="evenodd" d="M46.563 31.875C64.093 49.406 78.484 63.75 78.541 63.75C78.598 63.75 64.302 49.406 46.771 31.875C29.24 14.344 14.849 0 14.792 0C14.735 0 29.032 14.344 46.563 31.875ZM119.446 1.563C119.447 2.479 119.484 2.828 119.528 2.338C119.572 1.848 119.571 1.098 119.526 0.672C119.482 0.245 119.446 0.646 119.446 1.563ZM122.571 1.563C122.572 2.479 122.609 2.828 122.653 2.338C122.697 1.848 122.696 1.098 122.651 0.672C122.607 0.245 122.571 0.646 122.571 1.563ZM30.52 16.615C39.458 25.581 46.793 32.917 46.822 32.917C46.968 32.917 45.728 31.668 30.573 16.562L14.271 0.313L30.52 16.615ZM42.03 43.957L83.748 85.727L85.26 84.168L86.771 82.608L85.258 84.062L83.745 85.515L42.029 43.851L0.312996 2.188L42.03 43.957ZM41.559 44.319L83.222 86.035L82.082 87.236L80.942 88.438L82.189 87.238L83.435 86.039L41.666 44.322L-0.104004 2.604L41.559 44.319ZM242.917 69.687C279.297 106.068 309.109 135.833 309.166 135.833C309.224 135.833 279.505 106.068 243.125 69.687C206.745 33.307 176.933 3.542 176.875 3.542C176.818 3.542 206.537 33.307 242.917 69.687ZM242.5 70.104C278.88 106.484 308.692 136.25 308.75 136.25C308.807 136.25 279.088 106.484 242.708 70.104C206.328 33.724 176.516 3.958 176.459 3.958C176.401 3.958 206.12 33.724 242.5 70.104ZM33.646 53.75C51.979 72.083 67.026 87.083 67.083 87.083C67.14 87.083 52.187 72.083 33.854 53.75C15.521 35.417 0.473996 20.417 0.416996 20.417C0.359996 20.417 15.313 35.417 33.646 53.75ZM16.042 36.979C24.921 45.859 32.233 53.125 32.291 53.125C32.348 53.125 25.13 45.859 16.25 36.979C7.37 28.099 0.0579961 20.833 0.000996098 20.833C-0.0560039 20.833 7.162 28.099 16.042 36.979ZM242.813 87.917C274.437 119.542 300.359 145.417 300.416 145.417C300.474 145.417 274.646 119.542 243.021 87.917C211.396 56.292 185.474 30.417 185.417 30.417C185.36 30.417 211.188 56.292 242.813 87.917ZM269.214 79.057C309.609 119.496 317.952 127.753 318.172 127.516C318.389 127.283 318.385 127.26 318.153 127.393C317.95 127.508 303.807 113.509 269.194 78.934L220.521 30.313L269.214 79.057ZM242.457 88.394C274.115 120.053 299.943 146.036 299.852 146.136C299.76 146.237 299.814 146.244 299.972 146.152C300.218 146.009 185.388 30.833 185 30.833C184.943 30.833 210.798 56.736 242.457 88.394ZM268.75 79.479C295.505 106.234 317.442 128.125 317.5 128.125C317.557 128.125 295.713 106.234 268.958 79.479C242.203 52.724 220.266 30.833 220.209 30.833C220.151 30.833 241.995 52.724 268.75 79.479ZM86.969 83.385L86.146 84.271L87.031 83.447C87.855 82.681 88.012 82.5 87.855 82.5C87.821 82.5 87.422 82.898 86.969 83.385ZM89.261 85.677L88.438 86.563L89.323 85.739C90.146 84.973 90.304 84.792 90.146 84.792C90.112 84.792 89.714 85.19 89.261 85.677ZM87.45 86.4L86.05 87.801L85.16 86.977L84.271 86.153L85.157 87.084L86.043 88.016L87.551 86.508C88.38 85.679 89.012 85 88.955 85C88.897 85 88.22 85.63 87.45 86.4ZM84.683 87.45L85.505 88.337L84.161 89.742L82.817 91.146L84.27 89.74L85.724 88.334L84.793 87.448L83.861 86.563L84.683 87.45ZM81.553 88.802L80.729 89.688L81.615 88.864C82.438 88.098 82.596 87.917 82.438 87.917C82.404 87.917 82.006 88.315 81.553 88.802ZM153.229 155.208C189.896 191.875 219.942 221.875 220 221.875C220.057 221.875 190.104 191.875 153.438 155.208C116.771 118.542 86.724 88.542 86.667 88.542C86.61 88.542 116.563 118.542 153.229 155.208ZM152.813 155.625C189.479 192.292 219.526 222.292 219.583 222.292C219.64 222.292 189.687 192.292 153.021 155.625C116.354 118.958 86.308 88.958 86.25 88.958C86.193 88.958 116.146 118.958 152.813 155.625ZM83.428 91.51L82.604 92.396L83.49 91.572C84.313 90.806 84.471 90.625 84.313 90.625C84.279 90.625 83.881 91.023 83.428 91.51ZM395.365 99.319C395.852 99.363 396.648 99.363 397.135 99.319C397.622 99.275 397.224 99.239 396.25 99.239C395.276 99.239 394.878 99.275 395.365 99.319ZM395.152 103.9C395.521 103.946 396.178 103.947 396.61 103.902C397.042 103.857 396.74 103.819 395.938 103.818C395.135 103.817 394.782 103.854 395.152 103.9ZM161.354 147.292C177.968 163.906 191.609 177.5 191.666 177.5C191.723 177.5 178.177 163.906 161.563 147.292C144.948 130.677 131.308 117.083 131.251 117.083C131.193 117.083 144.74 130.677 161.354 147.292ZM318.46 128.089C318.401 128.184 318.935 128.817 319.645 129.495L320.938 130.729L319.734 129.467C319.072 128.773 318.595 128.141 318.675 128.061C318.754 127.982 318.762 127.917 318.693 127.917C318.623 127.917 318.518 127.994 318.46 128.089ZM319.047 129.729C320.149 130.884 320.248 131.059 319.994 131.395C319.722 131.755 319.727 131.755 320.111 131.404C320.502 131.045 320.479 131.005 319.164 129.737L317.817 128.438L319.047 129.729ZM321.547 131.066C321.462 131.205 337.323 147.198 360.754 170.597L400.104 209.896L360.858 170.597C337.509 147.218 321.67 131.205 321.756 131.066C321.835 130.938 321.853 130.833 321.795 130.833C321.738 130.833 321.626 130.938 321.547 131.066ZM312.697 132.24L311.979 133.021L312.76 132.303C313.488 131.635 313.637 131.458 313.478 131.458C313.444 131.458 313.092 131.81 312.697 132.24ZM360.417 171.146C382.13 192.859 399.942 210.625 400 210.625C400.057 210.625 382.338 192.859 360.625 171.146C338.912 149.432 321.099 131.667 321.042 131.667C320.985 131.667 338.703 149.432 360.417 171.146ZM312.181 133.802L310.938 135.104L312.24 133.861C313.449 132.706 313.637 132.5 313.483 132.5C313.451 132.5 312.865 133.086 312.181 133.802ZM314.583 136.146C314.077 136.661 313.71 137.083 313.767 137.083C313.825 137.083 314.286 136.661 314.792 136.146C315.298 135.63 315.665 135.208 315.608 135.208C315.55 135.208 315.089 135.63 314.583 136.146ZM310.729 137.5C311.409 138.188 312.013 138.75 312.07 138.75C312.128 138.75 311.618 138.188 310.938 137.5C310.257 136.813 309.654 136.25 309.596 136.25C309.539 136.25 310.049 136.813 310.729 137.5ZM313.903 137.867L312.505 139.276L355.263 181.982L398.021 224.688L355.364 181.978L312.707 139.269L314.112 137.864C314.885 137.091 315.468 136.458 315.409 136.458C315.35 136.458 314.672 137.092 313.903 137.867ZM308.12 137.865L306.984 139.063L308.123 137.971L309.262 136.879L310.517 138.075L311.771 139.271L310.527 137.969C309.052 136.424 309.47 136.442 308.12 137.865ZM306.447 138.49L305.729 139.271L306.51 138.553C307.238 137.885 307.387 137.708 307.228 137.708C307.194 137.708 306.842 138.06 306.447 138.49ZM310.933 140.885L309.692 142.188L310.938 140.989L312.185 139.79L354.895 182.447L397.604 225.104L354.896 182.344C331.407 158.826 312.185 139.583 312.181 139.583C312.177 139.583 311.616 140.169 310.933 140.885ZM309.375 141.354C308.869 141.87 308.502 142.292 308.559 142.292C308.616 142.292 309.077 141.87 309.583 141.354C310.089 140.839 310.457 140.417 310.399 140.417C310.342 140.417 309.881 140.839 309.375 141.354ZM158.75 179.479C177.713 198.443 193.276 213.958 193.333 213.958C193.39 213.958 177.922 198.443 158.958 179.479C139.995 160.516 124.433 145 124.375 145C124.318 145 139.787 160.516 158.75 179.479ZM302.131 147.184C303.124 148.215 303.37 148.377 303.59 148.14C303.805 147.909 303.802 147.885 303.573 148.015C303.387 148.121 302.897 147.8 302.115 147.059L300.938 145.942L302.131 147.184ZM301.667 147.604C302.289 148.234 302.845 148.75 302.902 148.75C302.96 148.75 302.497 148.234 301.875 147.604C301.253 146.974 300.697 146.458 300.639 146.458C300.582 146.458 301.044 146.974 301.667 147.604ZM177.083 162.188C185.275 170.38 192.025 177.083 192.082 177.083C192.14 177.083 185.484 170.38 177.292 162.188C169.1 153.995 162.35 147.292 162.293 147.292C162.235 147.292 168.891 153.995 177.083 162.188ZM341.875 186.979C362.786 207.891 379.942 225 380 225C380.057 225 362.995 207.891 342.083 186.979C321.172 166.068 304.016 148.958 303.959 148.958C303.901 148.958 320.964 166.068 341.875 186.979ZM303.209 149.616C303.112 149.772 303.153 149.799 303.326 149.692C303.507 149.58 315.53 161.451 341.431 187.316L379.271 225.104L341.459 187.24C320.662 166.414 303.581 149.375 303.502 149.375C303.423 149.375 303.291 149.483 303.209 149.616ZM175.938 195.833C185.677 205.573 193.692 213.542 193.749 213.542C193.806 213.542 185.885 205.573 176.146 195.833C166.407 186.094 158.392 178.125 158.334 178.125C158.277 178.125 166.198 186.094 175.938 195.833ZM273.612 221.667C273.612 222.526 273.648 222.878 273.693 222.448C273.738 222.018 273.738 221.315 273.693 220.885C273.648 220.456 273.612 220.807 273.612 221.667ZM277.363 221.979C277.364 222.896 277.4 223.245 277.444 222.755C277.488 222.265 277.488 221.515 277.443 221.088C277.398 220.662 277.362 221.063 277.363 221.979Z" fill="#A6A6BF"/>
<path fill-rule="evenodd" clip-rule="evenodd" d="M14.519 0.145038C14.453 0.251038 24.542 10.457 36.939 22.825C49.336 35.193 56.264 42.074 52.335 38.116C48.407 34.158 45.239 30.872 45.296 30.815C45.353 30.758 38.478 23.79 30.019 15.331C21.559 6.87204 14.584 0.0380384 14.519 0.145038ZM30 15.521C38.421 23.943 45.265 30.833 45.207 30.833C45.15 30.833 38.213 23.943 29.792 15.521C21.37 7.09904 14.527 0.208038 14.584 0.208038C14.642 0.208038 21.579 7.09904 30 15.521ZM120.068 2.39604C120.069 3.19804 120.107 3.50104 120.152 3.06804C120.197 2.63604 120.196 1.98004 120.15 1.61004C120.104 1.24004 120.067 1.59404 120.068 2.39604ZM123.187 2.50004C123.187 3.13004 123.226 3.38804 123.274 3.07304C123.322 2.75804 123.322 2.24204 123.274 1.92704C123.226 1.61204 123.187 1.87004 123.187 2.50004ZM0.138967 2.43104C0.0529672 2.51604 18.758 21.362 41.706 44.31L83.429 86.034L82.392 87.131C81.821 87.735 82.456 87.151 83.802 85.833C85.148 84.516 86.25 83.394 86.25 83.34C86.25 83.286 85.686 83.8 84.997 84.482L83.744 85.722L42.019 43.998C19.071 21.05 0.224967 2.34504 0.138967 2.43104ZM41.979 44.167C64.896 67.083 83.599 85.833 83.541 85.833C83.484 85.833 64.687 67.083 41.771 44.167C18.854 21.25 0.150967 2.50004 0.208967 2.50004C0.265967 2.50004 19.063 21.25 41.979 44.167ZM176.602 3.68604C176.537 3.79204 206.231 33.627 242.589 69.985C278.947 106.343 308.749 136.004 308.814 135.898C308.88 135.791 279.186 105.957 242.828 69.599C206.469 33.24 176.668 3.58004 176.602 3.68604ZM242.813 69.792C279.135 106.115 308.807 135.833 308.75 135.833C308.692 135.833 278.927 106.115 242.604 69.792C206.281 33.469 176.61 3.75004 176.667 3.75004C176.724 3.75004 206.49 33.469 242.813 69.792ZM0.143967 20.561C0.0779672 20.667 10.402 31.108 23.085 43.763C35.768 56.417 42.649 63.251 38.377 58.949C34.104 54.647 30.655 51.081 30.713 51.024C30.77 50.966 23.942 44.046 15.54 35.644C7.13697 27.242 0.208967 20.455 0.143967 20.561ZM15.521 35.833C23.885 44.198 30.681 51.042 30.624 51.042C30.567 51.042 23.676 44.198 15.313 35.833C6.94897 27.469 0.151967 20.625 0.208967 20.625C0.266967 20.625 7.15697 27.469 15.521 35.833ZM185.144 30.561C185.078 30.667 210.929 56.658 242.589 88.318C274.249 119.978 300.207 145.795 300.273 145.689C300.338 145.583 274.488 119.592 242.828 87.932C211.167 56.272 185.209 30.455 185.144 30.561ZM220.352 30.561C220.287 30.667 242.152 52.673 268.943 79.464C295.734 106.254 317.707 128.087 317.773 127.981C317.838 127.875 295.973 105.868 269.182 79.078C242.391 52.287 220.418 30.455 220.352 30.561ZM242.813 88.125C274.437 119.75 300.265 145.625 300.208 145.625C300.151 145.625 274.229 119.75 242.604 88.125C210.979 56.5 185.151 30.625 185.209 30.625C185.266 30.625 211.188 56.5 242.813 88.125ZM269.167 79.271C295.922 106.026 317.765 127.917 317.708 127.917C317.651 127.917 295.713 106.026 268.958 79.271C242.203 52.516 220.36 30.625 220.417 30.625C220.474 30.625 242.412 52.516 269.167 79.271ZM87.241 86.817L86.048 88.01L85.147 87.125C83.972 85.972 83.678 86.261 84.831 87.436L85.713 88.335L84.575 89.532C83.95 90.19 84.586 89.604 85.989 88.229C87.393 86.854 88.541 85.706 88.541 85.677C88.542 85.54 88.348 85.71 87.241 86.817ZM85.104 87.292C85.552 87.75 85.871 88.125 85.814 88.125C85.756 88.125 85.343 87.75 84.896 87.292C84.448 86.833 84.129 86.458 84.186 86.458C84.244 86.458 84.657 86.833 85.104 87.292ZM86.394 88.686C86.328 88.792 116.304 118.908 153.006 155.61C189.708 192.312 219.79 222.254 219.856 222.148C219.922 222.041 189.946 191.926 153.244 155.224C116.542 118.522 86.46 88.58 86.394 88.686ZM153.229 155.417C189.896 192.083 219.849 222.083 219.791 222.083C219.734 222.083 189.687 192.083 153.021 155.417C116.354 118.75 86.401 88.75 86.459 88.75C86.516 88.75 116.563 118.75 153.229 155.417ZM394.735 98.692C395.105 98.738 395.761 98.739 396.193 98.694C396.626 98.649 396.323 98.611 395.521 98.61C394.719 98.609 394.365 98.646 394.735 98.692ZM391.719 99.31C391.919 99.363 392.247 99.363 392.448 99.31C392.648 99.258 392.484 99.215 392.083 99.215C391.682 99.215 391.518 99.258 391.719 99.31ZM394.635 103.274C394.951 103.322 395.466 103.322 395.781 103.274C396.096 103.226 395.839 103.187 395.208 103.187C394.578 103.187 394.32 103.226 394.635 103.274ZM391.719 103.894C391.919 103.946 392.247 103.946 392.448 103.894C392.648 103.841 392.484 103.798 392.083 103.798C391.682 103.798 391.518 103.841 391.719 103.894ZM2.75997 121.602C2.96097 121.654 3.28897 121.654 3.48997 121.602C3.68997 121.55 3.52597 121.507 3.12497 121.507C2.72397 121.507 2.55997 121.55 2.75997 121.602ZM0.259967 122.227C0.460967 122.279 0.788967 122.279 0.989967 122.227C1.18997 122.175 1.02597 122.132 0.624967 122.132C0.223967 122.132 0.0599672 122.175 0.259967 122.227ZM0.259967 125.56C0.460967 125.613 0.788967 125.613 0.989967 125.56C1.18997 125.508 1.02597 125.465 0.624967 125.465C0.223967 125.465 0.0599672 125.508 0.259967 125.56ZM318.264 128.485C318.198 128.592 318.657 129.186 319.284 129.805C319.911 130.424 320.378 131.049 320.323 131.194C320.169 131.595 320.375 131.51 320.607 131.076C320.83 130.658 318.508 128.09 318.264 128.485ZM319.583 129.688C320.206 130.318 320.668 130.833 320.611 130.833C320.553 130.833 319.997 130.318 319.375 129.688C318.753 129.057 318.29 128.542 318.348 128.542C318.405 128.542 318.961 129.057 319.583 129.688ZM321.271 131.211C321.098 131.534 326.84 137.361 360.521 171.042C382.221 192.741 399.95 210.33 399.921 210.129C399.891 209.928 382.213 192.109 360.635 170.531C337.291 147.186 321.462 131.205 321.547 131.066C321.627 130.938 321.642 130.833 321.582 130.833C321.522 130.833 321.382 131.003 321.271 131.211ZM313.008 132.135L312.396 132.813L313.073 132.201C313.704 131.63 313.846 131.458 313.685 131.458C313.649 131.458 313.344 131.763 313.008 132.135ZM360.625 170.729C382.224 192.328 399.849 210 399.791 210C399.734 210 382.015 192.328 360.417 170.729C338.818 149.13 321.193 131.458 321.25 131.458C321.308 131.458 339.026 149.13 360.625 170.729ZM311.042 134.688C310.188 135.547 309.536 136.25 309.594 136.25C309.651 136.25 310.396 135.547 311.25 134.688C312.104 133.828 312.755 133.125 312.698 133.125C312.641 133.125 311.895 133.828 311.042 134.688ZM157.352 142.613C161.567 146.858 164.97 150.378 164.912 150.435C164.855 150.492 170.886 156.616 178.314 164.044C185.743 171.471 191.874 177.462 191.94 177.355C192.005 177.249 182.526 167.652 170.874 156.029C159.222 144.406 153.137 138.369 157.352 142.613ZM315.091 135.885L314.479 136.563L315.156 135.951C315.787 135.38 315.929 135.208 315.768 135.208C315.732 135.208 315.428 135.513 315.091 135.885ZM309.514 136.61C309.448 136.716 309.941 137.344 310.61 138.006C311.278 138.667 311.879 139.121 311.944 139.015C312.01 138.909 311.517 138.281 310.849 137.619C310.18 136.958 309.58 136.504 309.514 136.61ZM308.219 137.552L307.396 138.438L308.281 137.614C309.105 136.848 309.262 136.667 309.105 136.667C309.071 136.667 308.672 137.065 308.219 137.552ZM310.833 137.813C311.456 138.443 311.918 138.958 311.861 138.958C311.803 138.958 311.247 138.443 310.625 137.813C310.003 137.182 309.54 136.667 309.598 136.667C309.655 136.667 310.211 137.182 310.833 137.813ZM313.43 138.177L312.396 139.271L313.49 138.237C314.091 137.668 314.583 137.176 314.583 137.143C314.583 136.988 314.39 137.161 313.43 138.177ZM312.435 139.519C312.37 139.625 331.517 158.913 354.985 182.381C378.453 205.848 397.707 224.962 397.773 224.856C397.839 224.75 378.691 205.462 355.224 181.994C331.756 158.527 312.501 139.413 312.435 139.519ZM311.136 140.469L310.313 141.354L311.198 140.531C312.021 139.765 312.179 139.583 312.021 139.583C311.987 139.583 311.589 139.982 311.136 140.469ZM355.208 182.188C378.64 205.62 397.765 224.792 397.708 224.792C397.651 224.792 378.432 205.62 355 182.188C331.568 158.755 312.443 139.583 312.5 139.583C312.558 139.583 331.776 158.755 355.208 182.188ZM309.049 141.927L308.438 142.604L309.115 141.992C309.746 141.422 309.887 141.25 309.726 141.25C309.691 141.25 309.386 141.555 309.049 141.927ZM300.758 146.145C300.545 146.7 302.993 148.79 303.446 148.44C303.707 148.238 303.736 148.165 303.528 148.236C303.316 148.309 302.793 147.918 302.03 147.118C301.332 146.388 300.817 145.993 300.758 146.145ZM302.083 147.396C302.706 148.026 303.168 148.542 303.111 148.542C303.053 148.542 302.497 148.026 301.875 147.396C301.253 146.766 300.79 146.25 300.848 146.25C300.905 146.25 301.461 146.766 302.083 147.396ZM303.645 149.079C303.365 149.197 379.038 224.853 379.505 224.921C379.706 224.951 362.767 207.871 341.862 186.966C320.958 166.062 303.854 148.966 303.854 148.975C303.854 148.984 303.76 149.031 303.645 149.079ZM341.667 186.979C362.463 207.776 379.432 224.792 379.375 224.792C379.317 224.792 362.255 207.776 341.458 186.979C320.662 166.182 303.693 149.167 303.75 149.167C303.808 149.167 320.87 166.182 341.667 186.979ZM178.542 163.854C185.932 171.245 191.931 177.292 191.874 177.292C191.816 177.292 185.723 171.245 178.333 163.854C170.943 156.464 164.944 150.417 165.001 150.417C165.059 150.417 171.152 156.464 178.542 163.854ZM152.769 172.822C157.328 177.41 161.011 181.211 160.954 181.268C160.897 181.325 168.193 188.715 177.169 197.689C186.144 206.664 193.541 213.92 193.606 213.814C193.672 213.708 182.645 202.564 169.103 189.05C155.56 175.536 148.21 168.233 152.769 172.822ZM193.542 213.697C193.542 213.843 192.293 212.603 177.187 197.448L160.938 181.146L177.24 197.395C186.206 206.333 193.542 213.668 193.542 213.697ZM272.979 221.042C272.979 221.672 273.018 221.93 273.066 221.615C273.114 221.299 273.114 220.784 273.066 220.469C273.018 220.154 272.979 220.411 272.979 221.042ZM276.733 221.458C276.733 222.203 276.771 222.508 276.817 222.135C276.864 221.763 276.864 221.154 276.817 220.781C276.771 220.409 276.733 220.714 276.733 221.458Z" fill="#A6A6BF"/>
<path fill-rule="evenodd" clip-rule="evenodd" d="M119.582 2.552C119.574 26.927 109.82 54.179 93.814 74.544L91.798 77.11L68.659 54.024C55.933 41.326 38.536 24 30 15.521C21.464 7.042 31.812 17.461 52.996 38.674C80.628 66.342 91.466 77.323 91.346 77.528C91.068 78.002 87.854 81.639 85.755 83.854L83.781 85.938L41.942 44.167L0.10398 2.396L41.875 44.234L83.646 86.072L81.875 87.737C80.901 88.653 78.802 90.532 77.211 91.912L74.319 94.422L52.628 72.784C40.698 60.883 24 44.255 15.521 35.833C7.04198 27.412 16.745 37.189 37.083 57.562C68.174 88.705 74.013 94.642 73.75 94.853C53.659 110.974 24.792 121.657 1.30198 121.666C0.57298 121.666 -2.01175e-05 121.758 -2.01175e-05 121.875C-2.01175e-05 122.293 5.43198 122.039 11.458 121.34C32.896 118.852 53.762 110.472 71.216 97.342L74.411 94.938L75.357 95.884C76.521 97.048 76.703 96.784 72.64 99.825C52.323 115.033 28.041 123.805 3.17698 124.921C-0.11802 125.069 -1.21802 125.417 1.61498 125.416C24.965 125.404 53.524 115.152 73.836 99.491L76.735 97.256L118.732 139.201C141.831 162.271 168.135 188.505 177.188 197.5C186.24 206.495 167.398 187.582 135.316 155.472C84.648 104.759 77.027 97.053 77.295 96.802C77.465 96.643 78.401 95.826 79.375 94.986C80.349 94.147 82.301 92.384 83.714 91.069L86.281 88.677L153.089 155.432L219.896 222.188L153.128 155.367L86.36 88.547L87.73 87.138C89.151 85.676 92.584 81.884 93.611 80.642L94.199 79.929L129.443 115.121C148.828 134.477 170.828 156.406 178.333 163.854C185.839 171.302 170.027 155.411 143.196 128.541L94.413 79.688L96.382 77.188C112.268 57.017 121.999 31.175 123.017 6.458C123.081 4.911 123.181 2.826 123.241 1.823C123.327 0.358 123.292 0 123.06 0C122.828 0 122.748 0.843 122.646 4.323C121.895 30.115 112.501 55.809 96.174 76.727L94.094 79.392L93.098 78.411L92.103 77.431L92.953 76.372C109.231 56.088 119.074 30.399 119.9 6.045C119.96 4.267 120.055 2.18 120.11 1.406C120.193 0.248 120.156 0 119.897 0C119.635 0 119.583 0.418 119.582 2.552ZM242.656 69.792C279.008 106.172 308.75 136.02 308.75 136.122C308.75 136.223 307.876 137.254 306.808 138.413C305.74 139.572 303.945 141.599 302.82 142.917C301.695 144.234 300.692 145.404 300.59 145.516C300.477 145.641 278.264 123.596 242.755 88.12L185.104 30.521L242.656 88.125C274.31 119.808 300.208 145.798 300.208 145.882C300.208 145.966 299.612 146.81 298.883 147.757C283.127 168.225 274.265 192.778 273.129 219.109C272.866 225.191 272.864 225 273.198 225C273.423 225 273.504 223.972 273.605 219.844C274.216 194.841 282.941 169.854 298.19 149.437C299.394 147.825 300.465 146.453 300.57 146.388C300.896 146.187 303.198 148.662 302.992 148.991C302.893 149.148 301.865 150.541 300.708 152.086C288.209 168.768 280.329 188.246 277.722 208.904C276.902 215.396 276.459 225 276.978 225C277.244 225 277.292 224.496 277.292 221.683C277.292 196.913 287.72 168.039 303.479 149.175C303.523 149.123 320.688 166.185 341.623 187.092L379.688 225.104L341.681 187.046C306.668 151.984 303.698 148.957 303.971 148.608C306.011 145.995 311.832 139.583 312.164 139.583C312.291 139.583 331.614 158.779 355.104 182.24L397.813 224.896L355.156 182.187C331.695 158.698 312.5 139.376 312.5 139.25C312.5 138.951 318.769 133.153 320.691 131.675C321.04 131.407 324.29 134.598 360.587 170.848L400.104 210.313L360.625 170.774L321.146 131.236L321.667 130.818C343.139 113.575 370.218 103.75 396.266 103.75C399.446 103.75 400 103.704 400 103.438C400 103.06 399.704 103.055 393.53 103.331C367.602 104.49 344.087 112.997 323.898 128.52C322.318 129.735 320.957 130.753 320.872 130.783C320.788 130.812 320.159 130.266 319.474 129.569L318.229 128.302L319.167 127.458C320.736 126.046 326.451 121.819 329.616 119.73C349.077 106.887 371.814 99.716 394.635 99.223C398.96 99.13 400 99.053 400 98.825C400 98.654 399.772 98.542 399.427 98.544C370.044 98.645 342.54 108.172 320.28 125.959L317.821 127.924L269.067 79.223L220.313 30.521L269.022 79.282L317.731 128.044L316.209 129.358C315.372 130.08 313.453 131.833 311.945 133.252C310.437 134.672 309.124 135.833 309.028 135.833C308.933 135.833 279.089 106.091 242.708 69.74L176.563 3.646L242.656 69.792ZM92.873 78.602C93.355 79.093 93.75 79.561 93.75 79.642C93.75 79.828 89.979 84.114 87.754 86.458L86.073 88.229L85.091 87.261L84.11 86.292L86.928 83.257C88.479 81.588 90.202 79.662 90.759 78.977C91.976 77.479 91.802 77.51 92.873 78.602ZM84.957 87.352C85.439 87.843 85.833 88.304 85.833 88.375C85.833 88.545 80.686 93.299 78.411 95.231L76.643 96.732L75.637 95.741L74.631 94.75L77.472 92.285C79.034 90.929 81.109 89.068 82.083 88.149C84.182 86.169 83.879 86.253 84.957 87.352ZM319.474 129.786C320.151 130.471 320.664 131.066 320.613 131.109C314.539 136.227 308.59 142.211 304.011 147.808L303.335 148.635L302.084 147.397C301.396 146.716 300.833 146.106 300.833 146.042C300.833 145.649 308.892 136.667 309.246 136.667C309.367 136.667 310.032 137.206 310.723 137.865L311.979 139.063L310.781 137.806C309.249 136.2 309.152 136.482 312.24 133.586C318.361 127.846 317.83 128.125 319.474 129.786Z" fill="#A6A6BF"/>
<path fill-rule="evenodd" clip-rule="evenodd" d="M85 70.313C88.608 73.922 91.607 76.875 91.664 76.875C91.721 76.875 88.816 73.922 85.208 70.313C81.6 66.703 78.601 63.75 78.544 63.75C78.487 63.75 81.392 66.703 85 70.313ZM93.021 78.333C93.468 78.792 93.881 79.167 93.939 79.167C93.996 79.167 93.677 78.792 93.229 78.333C92.782 77.875 92.369 77.5 92.311 77.5C92.254 77.5 92.573 77.875 93.021 78.333ZM102.708 88.021C107.233 92.547 110.982 96.25 111.04 96.25C111.097 96.25 107.442 92.547 102.917 88.021C98.392 83.495 94.643 79.792 94.585 79.792C94.528 79.792 98.183 83.495 102.708 88.021ZM85.208 85.104C84.702 85.62 84.335 86.042 84.392 86.042C84.45 86.042 84.911 85.62 85.417 85.104C85.923 84.589 86.29 84.167 86.233 84.167C86.175 84.167 85.714 84.589 85.208 85.104ZM114.688 100.625C123.739 109.677 131.192 117.083 131.249 117.083C131.306 117.083 123.947 109.677 114.896 100.625C105.844 91.573 98.392 84.167 98.334 84.167C98.277 84.167 105.636 91.573 114.688 100.625ZM83.008 87.344L82.396 88.021L83.073 87.409C83.704 86.839 83.846 86.667 83.685 86.667C83.649 86.667 83.344 86.971 83.008 87.344ZM70.521 90.625C72.466 92.573 74.105 94.167 74.162 94.167C74.219 94.167 72.675 92.573 70.729 90.625C68.784 88.677 67.145 87.083 67.088 87.083C67.031 87.083 68.575 88.677 70.521 90.625ZM84.989 89.948L84.271 90.729L85.052 90.011C85.482 89.616 85.833 89.265 85.833 89.23C85.833 89.071 85.657 89.221 84.989 89.948ZM75.616 95.677C76.127 96.221 76.572 96.667 76.606 96.667C76.762 96.667 76.597 96.48 75.677 95.616L74.688 94.688L75.616 95.677ZM77.083 96.997C77.083 97.103 82.826 102.907 89.844 109.896L102.604 122.604L89.896 109.8C82.906 102.758 77.164 96.953 77.135 96.901C77.107 96.848 77.083 96.892 77.083 96.997ZM106.354 127.083C116.208 136.938 124.317 145 124.374 145C124.431 145 116.416 136.938 106.563 127.083C96.709 117.229 88.6 109.167 88.543 109.167C88.485 109.167 96.5 117.229 106.354 127.083ZM312.803 137.969L311.979 138.854L312.865 138.031C313.688 137.265 313.846 137.083 313.688 137.083C313.654 137.083 313.256 137.482 312.803 137.969ZM310.924 139.844L310.313 140.521L310.99 139.909C311.621 139.339 311.762 139.167 311.601 139.167C311.566 139.167 311.261 139.471 310.924 139.844Z" fill="#C1C1D2"/>
<path fill-rule="evenodd" clip-rule="evenodd" d="M123.173 4.16706C123.173 4.56806 123.216 4.73206 123.269 4.53106C123.321 4.33106 123.321 4.00306 123.269 3.80206C123.216 3.60206 123.173 3.76606 123.173 4.16706ZM119.423 4.79206C119.423 5.19306 119.466 5.35706 119.519 5.15606C119.571 4.95606 119.571 4.62806 119.519 4.42706C119.466 4.22706 119.423 4.39106 119.423 4.79206ZM122.548 4.79206C122.548 5.19306 122.591 5.35706 122.644 5.15606C122.696 4.95606 122.696 4.62806 122.644 4.42706C122.591 4.22706 122.548 4.39106 122.548 4.79206ZM75.313 61.2501C84.135 70.0731 91.4 77.2921 91.457 77.2921C91.515 77.2921 84.343 70.0731 75.521 61.2501C66.698 52.4271 59.433 45.2081 59.376 45.2081C59.319 45.2081 66.49 52.4271 75.313 61.2501ZM59.896 80.6251C67.572 88.3021 73.9 94.5831 73.957 94.5831C74.014 94.5831 67.781 88.3021 60.104 80.6251C52.428 72.9481 46.1 66.6671 46.043 66.6671C45.986 66.6671 52.219 72.9481 59.896 80.6251ZM92.7 78.5941C93.21 79.1381 93.656 79.5831 93.689 79.5831C93.846 79.5831 93.68 79.3961 92.76 78.5331L91.771 77.6041L92.7 78.5941ZM96.146 82.0831C97.287 83.2291 98.268 84.1671 98.326 84.1671C98.383 84.1671 97.496 83.2291 96.354 82.0831C95.213 80.9381 94.232 80.0001 94.174 80.0001C94.117 80.0001 95.004 80.9381 96.146 82.0831ZM74.188 95.0521C74.238 95.0811 74.746 95.5261 75.316 96.0421L76.354 96.9791L75.425 95.9901C74.915 95.4451 74.407 95.0001 74.297 95.0001C74.187 95.0001 74.138 95.0231 74.188 95.0521ZM130.313 115.625C140.968 126.281 149.734 135 149.791 135C149.848 135 141.177 126.281 130.521 115.625C119.865 104.969 111.1 96.2501 111.043 96.2501C110.985 96.2501 119.657 104.969 130.313 115.625ZM82.5 103.229C85.764 106.495 88.482 109.167 88.539 109.167C88.596 109.167 85.972 106.495 82.708 103.229C79.444 99.9641 76.727 97.2921 76.669 97.2921C76.612 97.2921 79.236 99.9641 82.5 103.229ZM393.177 103.269C393.378 103.321 393.706 103.321 393.906 103.269C394.107 103.216 393.943 103.173 393.542 103.173C393.141 103.173 392.977 103.216 393.177 103.269ZM123.438 143.542C135.01 155.115 144.525 164.583 144.583 164.583C144.64 164.583 135.218 155.115 123.646 143.542C112.073 131.969 102.558 122.5 102.501 122.5C102.443 122.5 111.865 131.969 123.438 143.542ZM310 134.896C309.494 135.411 309.127 135.833 309.184 135.833C309.241 135.833 309.702 135.411 310.208 134.896C310.714 134.38 311.082 133.958 311.024 133.958C310.967 133.958 310.506 134.38 310 134.896ZM277.34 218.958C277.34 219.359 277.383 219.523 277.435 219.323C277.488 219.122 277.488 218.794 277.435 218.594C277.383 218.393 277.34 218.557 277.34 218.958ZM272.965 219.375C272.965 219.776 273.008 219.94 273.06 219.74C273.113 219.539 273.113 219.211 273.06 219.01C273.008 218.81 272.965 218.974 272.965 219.375ZM276.715 219.583C276.715 219.984 276.758 220.148 276.81 219.948C276.863 219.747 276.863 219.419 276.81 219.219C276.758 219.018 276.715 219.182 276.715 219.583Z" fill="#A6A6BF"/>
</svg>
