<svg width="20" height="20" fill="none" xmlns="http://www.w3.org/2000/svg">
  <path d="M10.1 14.025c0 .11.085.2.188.2h4.624c.103 0 .188-.09.188-.2v-1.2c0-.11-.085-.2-.188-.2h-4.625c-.102 0-.187.09-.187.2v1.2Zm-4.872.152 4.8-4.024a.202.202 0 0 0 0-.308l-4.8-4.023a.199.199 0 0 0-.328.153v1.568c0 .06.025.114.072.152L7.718 10l-2.744 2.305a.202.202 0 0 0-.073.152v1.568c0 .17.197.262.327.152ZM19.2 0H.8a.8.8 0 0 0-.8.8v18.4a.8.8 0 0 0 .8.8h18.4a.8.8 0 0 0 .8-.8V.8a.8.8 0 0 0-.8-.8Zm-1 18.2H1.8V1.8h16.4v16.4Z" fill="#333346"/>
</svg>
