<svg width="30" height="30" viewBox="0 0 30 30" fill="none" xmlns="http://www.w3.org/2000/svg">
<path d="M15 0C6.72909 0 0 6.72909 0 15C0 23.2709 6.72909 30 15 30C23.2709 30 30 23.2709 30 15C30 6.72909 23.2709 0 15 0ZM25.3125 21.9231H22.0514C21.9504 21.9228 21.8512 21.8961 21.7637 21.8455C21.6763 21.7948 21.6036 21.7221 21.5531 21.6346L20.3892 19.6385C20.3126 19.5079 20.2903 19.3526 20.3272 19.2058L21.3988 14.8846C21.4203 14.7975 21.4618 14.7167 21.52 14.6485C21.5782 14.5802 21.6515 14.5265 21.7341 14.4916L23.7606 13.6334C23.8596 13.5914 23.9684 13.5779 24.0747 13.5945C24.1809 13.6111 24.2805 13.657 24.362 13.7272L27.3642 16.3103C27.4382 16.3741 27.4948 16.4555 27.5287 16.5471C27.5627 16.6387 27.5728 16.7373 27.5582 16.8339C27.3095 18.5397 26.7136 20.1763 25.8072 21.6425C25.756 21.7281 25.6835 21.7988 25.5968 21.848C25.5101 21.8972 25.4122 21.923 25.3125 21.9231ZM6.23942 13.6392L8.26587 14.4974C8.34846 14.5323 8.42178 14.586 8.47999 14.6542C8.5382 14.7225 8.5797 14.8033 8.6012 14.8904L9.67284 19.2115C9.70972 19.3583 9.68744 19.5137 9.61082 19.6442L8.44688 21.6346C8.39635 21.7221 8.32373 21.7948 8.23628 21.8455C8.14882 21.8961 8.04961 21.9228 7.94856 21.9231H4.6875C4.58887 21.9231 4.49187 21.8979 4.40577 21.8498C4.31966 21.8017 4.24733 21.7323 4.19567 21.6483C3.28928 20.1821 2.69335 18.5454 2.44471 16.8397C2.43009 16.7431 2.44022 16.6444 2.47415 16.5529C2.50808 16.4613 2.5647 16.3798 2.6387 16.3161L5.64087 13.7329C5.72213 13.6633 5.82115 13.6177 5.92685 13.6012C6.03255 13.5846 6.14077 13.5978 6.23942 13.6392ZM24.7687 7.34784L23.4656 11.0531C23.4394 11.1288 23.3978 11.1983 23.3433 11.257C23.2887 11.3157 23.2226 11.3625 23.149 11.3942L21.0159 12.2978C20.918 12.3393 20.8105 12.3528 20.7054 12.337C20.6003 12.3213 20.5016 12.2767 20.4202 12.2084L16.363 8.80529C16.2982 8.75165 16.2458 8.68448 16.2097 8.60849C16.1736 8.5325 16.1545 8.44952 16.1538 8.36538V5.94375C16.1539 5.84887 16.1774 5.75546 16.2221 5.67181C16.2669 5.58816 16.3316 5.51684 16.4106 5.46418L19.4993 3.40601C19.5799 3.35221 19.6727 3.31958 19.7693 3.31113C19.8658 3.30269 19.963 3.3187 20.0517 3.35769C21.829 4.13279 23.4062 5.30281 24.6635 6.77885C24.7296 6.85602 24.7741 6.94927 24.7926 7.04919C24.8111 7.1491 24.8029 7.25212 24.7687 7.34784ZM10.5 3.40601L13.5894 5.46418C13.6684 5.51684 13.7331 5.58816 13.7779 5.67181C13.8226 5.75546 13.8461 5.84887 13.8462 5.94375V8.36538C13.8462 8.44966 13.8277 8.53292 13.7921 8.60929C13.7564 8.68566 13.7045 8.7533 13.6399 8.80745L9.58269 12.2106C9.50128 12.2789 9.40257 12.3234 9.29745 12.3392C9.19234 12.355 9.08491 12.3414 8.98702 12.3L6.85096 11.3942C6.77693 11.3629 6.71028 11.3164 6.65526 11.2578C6.60024 11.1992 6.55809 11.1297 6.53149 11.0538L5.22837 7.34856C5.1945 7.2525 5.18667 7.14919 5.20567 7.04912C5.22467 6.94906 5.26982 6.85581 5.33654 6.77885C6.59456 5.30133 8.17307 4.13027 9.95192 3.35481C10.0403 3.317 10.1367 3.30188 10.2325 3.31083C10.3282 3.31977 10.4201 3.35249 10.5 3.40601ZM11.7483 27.0209L10.3255 23.4375C10.2929 23.356 10.2794 23.2682 10.2859 23.1808C10.2924 23.0933 10.3188 23.0084 10.363 22.9327L11.457 21.0577C11.5075 20.9702 11.5801 20.8975 11.6676 20.8469C11.755 20.7962 11.8542 20.7695 11.9553 20.7692H18.0447C18.1458 20.7695 18.245 20.7962 18.3324 20.8469C18.4199 20.8975 18.4925 20.9702 18.543 21.0577L19.6377 22.9327C19.6821 23.0084 19.7086 23.0932 19.7152 23.1807C19.7218 23.2682 19.7084 23.356 19.676 23.4375L18.2632 27.0195C18.2287 27.107 18.1732 27.1848 18.1017 27.2461C18.0302 27.3073 17.9447 27.3501 17.8529 27.3707C15.9782 27.8009 14.0304 27.8009 12.1558 27.3707C12.0646 27.3498 11.9799 27.307 11.9089 27.2461C11.8379 27.1852 11.7828 27.1079 11.7483 27.0209Z" fill="#1A1A24"/>
</svg>
