<svg width="33" height="30" viewBox="0 0 33 30" fill="none" xmlns="http://www.w3.org/2000/svg">
<path d="M29.7825 5.5C28.4093 3.78272 26.667 2.39662 24.6851 1.4445C22.7031 0.492386 20.5322 -0.00132009 18.3333 2.65092e-06C16.1345 -0.00132009 13.9636 0.492386 11.9816 1.4445C9.99962 2.39662 8.2574 3.78272 6.88417 5.5H9.35C11.747 3.14591 14.9737 1.82891 18.3333 1.83334C21.6924 1.8294 24.9183 3.14636 27.3148 5.5H29.7825ZM32.8863 16.5H31.0383C30.5742 19.7112 28.9112 22.6274 26.3838 24.662C23.8565 26.6966 20.6523 27.6985 17.4161 27.4662C14.1799 27.2339 11.1518 25.7845 8.94094 23.4098C6.73012 21.0351 5.50068 17.9112 5.5 14.6667H3.66667C3.66389 18.3994 5.08445 21.9928 7.63891 24.7145C10.1934 27.4363 13.6895 29.0817 17.4149 29.3155C21.1403 29.5492 24.8147 28.3537 27.6893 25.9726C30.5639 23.5914 32.4225 20.2038 32.8863 16.5ZM5.5 7.33334H33V11H31.1667V14.6667H29.3333V16.5H22V14.6667H20.1667V11H18.3333V14.6667H16.5V16.5H9.16667V14.6667H7.33333V11H3.66667V9.16667H5.5V7.33334ZM1.83333 12.8333V11H3.66667V12.8333H1.83333ZM1.83333 12.8333V16.5H0V12.8333H1.83333ZM9.16667 11V12.8333H11V11H9.16667ZM11 12.8333V14.6667H12.8333V12.8333H11ZM22 11V12.8333H23.8333V11H22ZM23.8333 12.8333V14.6667H25.6667V12.8333H23.8333ZM12.6298 19.2757C12.554 19.182 12.4605 19.1042 12.3545 19.0467C12.2486 18.9892 12.1324 18.9531 12.0126 18.9405C11.8927 18.9279 11.7716 18.9391 11.656 18.9733C11.5405 19.0075 11.4328 19.0642 11.3392 19.14C11.2455 19.2158 11.1677 19.3094 11.1102 19.4153C11.0527 19.5212 11.0166 19.6374 11.004 19.7572C10.9914 19.8771 11.0026 19.9982 11.0368 20.1138C11.071 20.2293 11.1277 20.337 11.2035 20.4307C12.063 21.4936 13.1494 22.3508 14.383 22.9395C15.6167 23.5283 16.9664 23.8337 18.3333 23.8333C21.2117 23.8333 23.7838 22.5042 25.4632 20.4288C25.6161 20.2397 25.6876 19.9975 25.662 19.7557C25.6364 19.5138 25.5157 19.292 25.3266 19.1391C25.1374 18.9862 24.8953 18.9146 24.6534 18.9403C24.4115 18.9659 24.1898 19.0865 24.0368 19.2757C23.3495 20.1263 22.4805 20.8125 21.4937 21.2839C20.5068 21.7553 19.427 21.9999 18.3333 22C17.2397 21.9999 16.1599 21.7553 15.173 21.2839C14.1861 20.8125 13.3172 20.1263 12.6298 19.2757Z" fill="#1A1A24"/>
</svg>
