<svg width="96px" height="96px" viewBox="0 0 60 71" fill="none" xmlns="http://www.w3.org/2000/svg">
<path d="M42.6359 52.463C44.2108 50.8904 46.7603 50.8945 48.3302 52.4721C49.9001 54.0499 49.896 56.6037 48.321 58.1764L41.3274 65.16C34.8753 71.6027 24.354 71.6962 17.793 65.3766C17.7551 65.3406 14.8336 62.4758 5.19601 53.0255C-1.21566 46.7387 -1.85442 36.6789 4.17914 30.2188L15.4286 18.1734C21.4168 11.7612 32.4553 11.0603 39.3019 16.5972L49.5191 24.8602C51.2494 26.2595 51.5197 28.799 50.1228 30.5324C48.7259 32.2657 46.1908 32.5364 44.4606 31.137L34.2434 22.8741C30.6627 19.9784 24.3991 20.3761 21.3094 23.6846L10.0597 35.7301C7.12244 38.8751 7.44416 43.9415 10.8291 47.2605C17.9062 54.2001 23.3605 59.5482 23.3668 59.5542C26.7778 62.8396 32.2932 62.7906 35.6423 59.4463L42.6359 52.463Z" fill="#FFA116"/>
<path fill-rule="evenodd" clip-rule="evenodd" d="M25.6467 45.4746C23.423 45.4746 21.6202 43.6687 21.6202 41.441C21.6202 39.2134 23.423 37.4075 25.6467 37.4075H55.3422C57.5659 37.4075 59.3686 39.2134 59.3686 41.441C59.3686 43.6687 57.5659 45.4746 55.3422 45.4746H25.6467Z" fill="#B3B3B3"/>
<path fill-rule="evenodd" clip-rule="evenodd" d="M31.2078 1.27791C32.727 -0.348834 35.2751 -0.433828 36.8989 1.08807C38.5228 2.60996 38.6077 5.16243 37.0885 6.78916L10.0598 35.7303C7.1225 38.8749 7.44416 43.9414 10.8289 47.2606L23.3111 59.5005C24.9002 61.0588 24.9275 63.6126 23.3719 65.2042C21.8163 66.7964 19.267 66.8236 17.6779 65.2655L5.19563 53.0253C-1.21566 46.7382 -1.85442 36.6784 4.1794 30.2187L31.2078 1.27791Z" fill="black"/>
</svg>
