<svg width="1730" height="27" fill="none" xmlns="http://www.w3.org/2000/svg">
  <path fill="#333346" d="M0 10.8h1729.35v5.4H0zM32.4 0h10.8v10.8H32.4zM1101.6 0h10.8v10.8h-10.8zM567 0h10.8v10.8H567zM1636.2 0h10.8v10.8h-10.8zM299.7 0h10.8v10.8h-10.8zM1368.9 0h10.8v10.8h-10.8zM834.3 0h10.8v10.8h-10.8zM166.05 0h10.8v10.8h-10.8zM1235.25 0h10.8v10.8h-10.8zM700.65 0h10.8v10.8h-10.8zM433.35 0h10.8v10.8h-10.8zM1502.55 0h10.8v10.8h-10.8zM967.95 0h10.8v10.8h-10.8z"/>
  <path fill="#333346" d="M76.95 16.2h10.8V27h-10.8zM1146.15 16.2h10.8V27h-10.8zM611.55 16.2h10.8V27h-10.8zM1680.75 16.2h10.8V27h-10.8zM344.25 16.2h10.8V27h-10.8zM1413.45 16.2h10.8V27h-10.8zM878.85 16.2h10.8V27h-10.8zM210.6 16.2h10.8V27h-10.8zM1279.8 16.2h10.8V27h-10.8zM745.2 16.2H756V27h-10.8zM477.9 16.2h10.8V27h-10.8zM1547.1 16.2h10.8V27h-10.8zM1012.5 16.2h10.8V27h-10.8zM121.5 0h10.8v10.8h-10.8zM1190.7 0h10.8v10.8h-10.8zM656.1 0h10.8v10.8h-10.8zM388.8 0h10.8v10.8h-10.8zM1458 0h10.8v10.8H1458zM923.4 0h10.8v10.8h-10.8zM255.15 0h10.8v10.8h-10.8zM1324.35 0h10.8v10.8h-10.8zM789.75 0h10.8v10.8h-10.8zM522.45 0h10.8v10.8h-10.8zM1591.65 0h10.8v10.8h-10.8zM1057.05 0h10.8v10.8h-10.8z"/>
</svg>